<?xml version="1.0" encoding="utf-8"?>
<!-- Generator: Adobe Illustrator 21.0.0, SVG Export Plug-In . SVG Version: 6.00 Build 0)  -->
<svg version="1.1" id="Layer_1" xmlns="http://www.w3.org/2000/svg" xmlns:xlink="http://www.w3.org/1999/xlink" x="0px" y="0px"
	 viewBox="0 0 1080 1920" style="enable-background:new 0 0 1080 1920;" xml:space="preserve">
<style type="text/css">
	.st0{fill:#9F9F9F;stroke:#000000;stroke-miterlimit:10;}
	.st1{fill:#282828;stroke:#000000;stroke-miterlimit:10;}
	.st2{fill:#323232;stroke:#000000;stroke-miterlimit:10;}
	.st3{fill:#151515;stroke:#000000;stroke-miterlimit:10;}
	.st4{fill:#6A6A6A;}
	.st5{fill:url(#SVGID_1_);stroke:#808080;stroke-miterlimit:10;}
	.st6{fill:none;stroke:#000000;stroke-miterlimit:10;}
	.st7{fill:#9F9F9F;}
	.st8{fill:none;stroke:#666666;stroke-miterlimit:10;}
	.st9{fill:#DDDDDD;}
	.st10{fill:url(#SVGID_2_);stroke:#666666;stroke-miterlimit:10;}
	.st11{fill:#323232;}
	.st12{fill:none;stroke:#B3B3B3;stroke-width:3;stroke-miterlimit:10;}
	.st13{fill:#093D00;}
	.st14{fill:none;stroke:#E2BD00;stroke-width:8;stroke-miterlimit:10;}
	.st15{fill:#E2BD00;}
	.st16{fill:#002287;stroke:#323232;stroke-miterlimit:10;}
	.st17{fill:#00185A;stroke:#323232;stroke-miterlimit:10;}
	.st18{enable-background:new    ;}
</style>
<title>2Artboard 1</title>
<g id="Layer_2">
	<rect x="382.6" y="1504.7" class="st0" width="336.9" height="293.7"/>
	<polygon class="st1" points="946.2,1535.9 946.2,1668 720.9,1798.1 719.5,1795.7 719.5,1505.1 	"/>
	<polygon class="st2" points="932.4,1676.2 932.4,1733 721.5,1854.8 720.1,1852.5 720.1,1798.8 	"/>
	<rect x="404.7" y="1799.3" class="st3" width="316.7" height="56"/>
	<polygon class="st4" points="946.2,1535.9 946.2,1555.2 719.5,1524.3 719.5,1505.1 	"/>
	
		<linearGradient id="SVGID_1_" gradientUnits="userSpaceOnUse" x1="868.1865" y1="277.8138" x2="952.6297" y2="277.8138" gradientTransform="matrix(1 0 0 -1 0 1920)">
		<stop  offset="0" style="stop-color:#CDFFF8"/>
		<stop  offset="0.64" style="stop-color:#B1D0FF"/>
	</linearGradient>
	<polygon class="st5" points="952.6,1565 952.6,1682.1 868.2,1730.8 868.2,1553.5 	"/>
	<polygon class="st6" points="822.3,1622.8 822.3,1681.8 720.9,1740.3 719.5,1737.8 719.5,1608.8 	"/>
	<polygon class="st4" points="822.3,1622.8 822.3,1681.8 720.9,1740.3 719.5,1737.8 719.5,1608.8 	"/>
	<polygon class="st4" points="867.7,1631.8 867.7,1670.5 776.3,1708.9 775,1707.3 775,1622.6 	"/>
	<rect x="719.5" y="1607.9" class="st7" width="148.7" height="26.6"/>
	<polygon class="st7" points="868.2,1655.1 868.2,1683.5 719.5,1739.2 719.5,1710.8 	"/>
	<line class="st6" x1="737.4" y1="1527.2" x2="737.4" y2="1788.7"/>
	<line class="st6" x1="756.2" y1="1529.9" x2="756.2" y2="1778.2"/>
	<line class="st6" x1="774.6" y1="1533.6" x2="774.6" y2="1767.2"/>
	<line class="st6" x1="790.6" y1="1534.5" x2="791.1" y2="1757.1"/>
	<line class="st6" x1="809.4" y1="1536.8" x2="809.4" y2="1746.8"/>
	<line class="st8" x1="868.6" y1="1562" x2="953.1" y2="1564.8"/>
	<line class="st8" x1="868.6" y1="1565.7" x2="953.1" y2="1568.5"/>
	<line class="st8" x1="868.6" y1="1569.4" x2="953.1" y2="1572.1"/>
	<line class="st8" x1="868.6" y1="1573" x2="953.1" y2="1575.8"/>
	<line class="st8" x1="867.7" y1="1576.7" x2="952.2" y2="1579.5"/>
	<line class="st8" x1="867.7" y1="1580.4" x2="952.2" y2="1583.1"/>
	<line class="st8" x1="868.6" y1="1558.4" x2="915" y2="1559.7"/>
	<line class="st8" x1="867.7" y1="1584.1" x2="952.2" y2="1586.8"/>
	<line class="st8" x1="867.7" y1="1587.7" x2="952.2" y2="1590.5"/>
	<line class="st8" x1="867.7" y1="1591.4" x2="952.2" y2="1594.2"/>
	<line class="st8" x1="867.7" y1="1595.1" x2="952.2" y2="1597.8"/>
	<line class="st8" x1="868.6" y1="1598.7" x2="953.1" y2="1601.5"/>
	<line class="st8" x1="868.6" y1="1602.4" x2="953.1" y2="1605.2"/>
	<line class="st8" x1="868.6" y1="1607" x2="953.1" y2="1609.8"/>
	<line class="st8" x1="868.6" y1="1610.7" x2="953.1" y2="1613.4"/>
	<line class="st8" x1="868.6" y1="1614.4" x2="953.1" y2="1617.1"/>
	<line class="st8" x1="868.6" y1="1618" x2="953.1" y2="1620.8"/>
	<line class="st8" x1="867.7" y1="1621.7" x2="952.2" y2="1624.4"/>
	<line class="st8" x1="867.7" y1="1625.4" x2="952.2" y2="1628.1"/>
	<line class="st8" x1="868.4" y1="1630.3" x2="952.8" y2="1630.6"/>
	<line class="st8" x1="868.5" y1="1633.9" x2="953" y2="1634.2"/>
	<line class="st8" x1="868.6" y1="1637.6" x2="953.1" y2="1637.9"/>
	<line class="st8" x1="868.7" y1="1641.3" x2="953.2" y2="1641.6"/>
	<line class="st8" x1="867.9" y1="1645" x2="952.4" y2="1645.3"/>
	<line class="st8" x1="868" y1="1648.6" x2="952.5" y2="1648.9"/>
	<line class="st8" x1="868.4" y1="1652.3" x2="952.8" y2="1652.6"/>
	<line class="st8" x1="868.5" y1="1656" x2="953" y2="1656.3"/>
	<line class="st8" x1="868.6" y1="1659.6" x2="953.1" y2="1659.9"/>
	<line class="st8" x1="868.7" y1="1663.3" x2="953.2" y2="1663.6"/>
	<line class="st8" x1="867.9" y1="1667" x2="952.4" y2="1667.3"/>
	<line class="st8" x1="868" y1="1670.7" x2="952.5" y2="1671"/>
	<line class="st8" x1="868.4" y1="1674.3" x2="952.8" y2="1674.6"/>
	<line class="st8" x1="868.5" y1="1678" x2="953" y2="1678.3"/>
	<line class="st8" x1="868.6" y1="1681.7" x2="953.1" y2="1682"/>
	<line class="st8" x1="868.7" y1="1685.3" x2="946.2" y2="1685.5"/>
	<line class="st8" x1="867.9" y1="1689" x2="939.8" y2="1689.2"/>
	<line class="st8" x1="868" y1="1692.7" x2="934.3" y2="1692.8"/>
	<line class="st8" x1="868" y1="1696.4" x2="927.8" y2="1696.5"/>
	<line class="st8" x1="868" y1="1700" x2="921.4" y2="1700.2"/>
	<line class="st8" x1="868" y1="1703.7" x2="915" y2="1703.8"/>
	<line class="st8" x1="868" y1="1707.4" x2="908.6" y2="1707.5"/>
	<line class="st8" x1="868.2" y1="1711.2" x2="902.1" y2="1711.2"/>
	<line class="st8" x1="868" y1="1714.7" x2="896.6" y2="1714.9"/>
	<line class="st8" x1="868" y1="1717.5" x2="891.1" y2="1717.6"/>
	<line class="st8" x1="868.2" y1="1720.4" x2="886.5" y2="1720.4"/>
	<line class="st8" x1="867.7" y1="1723.1" x2="882" y2="1723.1"/>
	<line class="st8" x1="867.7" y1="1725.9" x2="877.4" y2="1725.9"/>
	<polygon class="st9" points="932.9,1701 932.9,1722.5 852.6,1768.6 852.6,1768.5 798.2,1799.8 798,1799.5 722.5,1842.9 722,1842 
		722,1821.7 802.7,1775.3 802.7,1775.6 878.4,1732.2 878.4,1732.3 	"/>
</g>
<g id="Layer_3">
	
		<linearGradient id="SVGID_2_" gradientUnits="userSpaceOnUse" x1="374.3768" y1="222.1226" x2="719.4929" y2="222.1226" gradientTransform="matrix(1 0 0 -1 0 1920)">
		<stop  offset="0" style="stop-color:#CDFFF8"/>
		<stop  offset="0.64" style="stop-color:#B1D0FF"/>
	</linearGradient>
	<rect x="374.4" y="1596.5" class="st10" width="345.1" height="202.8"/>
	<rect x="382.6" y="1799.3" width="286.4" height="13.8"/>
	<rect x="666.3" y="1799.3" class="st11" width="55.1" height="13.8"/>
	<line class="st12" x1="374.4" y1="1608.4" x2="719.5" y2="1608.4"/>
	<line class="st12" x1="373.9" y1="1621.2" x2="719" y2="1621.2"/>
	<line class="st12" x1="374.8" y1="1634.1" x2="720" y2="1634.1"/>
	<line class="st12" x1="374.8" y1="1646" x2="720" y2="1646"/>
	<line class="st12" x1="373.5" y1="1660.7" x2="718.6" y2="1660.7"/>
	<line class="st12" x1="373" y1="1673.6" x2="718.1" y2="1673.6"/>
	<line class="st12" x1="373.9" y1="1686.4" x2="719" y2="1686.4"/>
	<line class="st12" x1="373.9" y1="1698.3" x2="719" y2="1698.3"/>
	<line class="st12" x1="374.4" y1="1709.4" x2="719.5" y2="1709.4"/>
	<line class="st12" x1="373.9" y1="1722.2" x2="719" y2="1722.2"/>
	<line class="st12" x1="374.8" y1="1735.1" x2="720" y2="1735.1"/>
	<line class="st12" x1="374.8" y1="1747" x2="720" y2="1747"/>
	<line class="st12" x1="373" y1="1758.9" x2="718.1" y2="1758.9"/>
	<line class="st12" x1="373" y1="1771.8" x2="718.1" y2="1771.8"/>
	<line class="st12" x1="373" y1="1784.6" x2="718.1" y2="1784.6"/>
	<line class="st12" x1="373" y1="1796.5" x2="718.1" y2="1796.5"/>
	<line class="st6" x1="824.1" y1="1539.9" x2="824.1" y2="1795.6"/>
	<line class="st6" x1="839.7" y1="1541.8" x2="839.7" y2="1786.5"/>
	<line class="st6" x1="853.5" y1="1544.5" x2="853.5" y2="1778.2"/>
	<polygon class="st11" points="976,1733 898,1778.1 897.4,1778.1 840.3,1811 841.1,1811 763,1856.1 720.5,1856.1 798.4,1811.1 
		797.6,1811.1 875.9,1765.9 875.9,1766.1 876.2,1766.1 933.7,1732.9 933.7,1733 	"/>
	<polygon class="st11" points="1033.9,1756.2 1033.9,1777.8 858.3,1879.2 763.6,1879.2 977.2,1755.8 977.2,1756.2 	"/>
	<polygon class="st11" points="964.1,1772.8 963.2,1773.3 963.2,1772.8 	"/>
	<polygon class="st4" points="975.8,1732.8 975.8,1756.8 764,1879.1 764,1855 	"/>
	<polygon class="st4" points="1033.6,1755.7 1033.6,1779.8 821.8,1902.1 821.8,1878 	"/>
	<polygon class="st13" points="465.7,1917.5 465.7,1917.7 465.3,1917.7 	"/>
	<polygon class="st11" points="1077,1778 998.9,1823.1 998.3,1823.1 941.3,1856 942.1,1856 864,1901.1 821.4,1901.1 899.3,1856.1 
		898.5,1856.1 976.9,1810.9 976.9,1811 977.2,1811 1034.7,1777.8 1034.7,1778 	"/>
</g>
<g>
	<path class="st14" d="M816.8,1416.6c-29.8,56-5.6,127,54,158.7"/>
	<path class="st15" d="M804.2,1433.4c2.5,1.4,5.6,0.6,7-1.9c1.4-2.5,0.6-5.6-1.9-7c-0.7-0.4-1.5-0.6-2.3-0.7l-5.5-1.2l-4.5-1l0,0
		c-0.1,0-0.2,0-0.2,0l-0.4,0.3c0.1,0.2,0.3,0.4,0.4,0.5l0,0.1l2.6,3.4l2.2,2.9C801.5,1430.6,802.5,1432.4,804.2,1433.4z"/>
	<path class="st15" d="M801.2,1447.6c2.8,0.4,5.4-1.6,5.8-4.4s-1.6-5.4-4.4-5.8c-0.8-0.1-1.6,0-2.4,0.2l-5.5,0.9l-4.5,0.8l0,0
		c-0.1,0-0.2,0-0.2,0l-0.2,0.4c0.2,0.1,0.4,0.2,0.6,0.3l0,0.1l3.7,2.2l3.1,1.9C797.7,1446.1,799.3,1447.4,801.2,1447.6z"/>
	<path class="st15" d="M797.5,1463.7c2.8,0.4,5.4-1.6,5.8-4.4s-1.6-5.4-4.4-5.8c-0.8-0.1-1.6,0-2.4,0.2l-5.5,0.9l-4.5,0.8l0,0
		c-0.1,0-0.2,0-0.2,0l-0.2,0.4c0.2,0.1,0.4,0.2,0.6,0.3l0,0.1l3.7,2.2l3.1,1.9C794,1462.1,795.6,1463.4,797.5,1463.7z"/>
	<path class="st15" d="M797.4,1480.8c2.8,0.4,5.4-1.6,5.8-4.4s-1.6-5.4-4.4-5.8c-0.8-0.1-1.6,0-2.4,0.2l-5.5,0.9l-4.5,0.8l0,0
		c-0.1,0-0.2,0-0.2,0l-0.2,0.4c0.2,0.1,0.4,0.2,0.6,0.3l0,0.1l3.7,2.2l3.1,1.9C793.9,1479.2,795.5,1480.6,797.4,1480.8z"/>
	<path class="st15" d="M801,1497.5c2.8-0.4,4.8-3,4.5-5.8s-3-4.8-5.8-4.5c-0.8,0.1-1.5,0.4-2.2,0.8l-5.1,2.3l-4.2,1.9l0,0
		c-0.1,0-0.1,0.1-0.2,0.1l-0.1,0.4c0.2,0.1,0.4,0.1,0.6,0.1l0,0.1l4.1,1.2l3.5,1C797.2,1496.9,799.1,1497.8,801,1497.5z"/>
	<path class="st15" d="M806.6,1514.8c2.7-0.8,4.3-3.6,3.6-6.4c-0.8-2.7-3.6-4.3-6.4-3.6c-0.8,0.2-1.5,0.6-2.1,1.2l-4.7,3.1l-3.8,2.5
		l0,0c-0.1,0-0.1,0.1-0.2,0.1l-0.1,0.4c0.2,0.1,0.4,0.1,0.7,0.1l0,0.1l4.2,0.6l3.6,0.5C802.7,1514.8,804.7,1515.3,806.6,1514.8z"/>
	<path class="st15" d="M814.9,1529.7c2.6-1.2,3.7-4.2,2.6-6.8c-1.2-2.6-4.2-3.7-6.8-2.6c-0.7,0.3-1.4,0.8-1.9,1.5l-4.2,3.7l-3.4,3.1
		l0,0c-0.1,0.1-0.1,0.1-0.2,0.2l0,0.4c0.2,0,0.4,0,0.7-0.1l0,0.1l4.3-0.1l3.6-0.1C811,1530.2,813.1,1530.5,814.9,1529.7z"/>
	<path class="st15" d="M823.9,1548.2c2.8-0.2,5-2.6,4.8-5.5c-0.2-2.8-2.6-5-5.5-4.8c-0.8,0.1-1.6,0.3-2.3,0.7l-5.3,2l-4.3,1.6l0,0
		c-0.1,0-0.1,0.1-0.2,0.1l-0.1,0.4c0.2,0.1,0.4,0.2,0.6,0.2l0,0.1l4,1.5l3.4,1.2C820.1,1547.4,821.9,1548.4,823.9,1548.2z"/>
	<path class="st15" d="M816.3,1443c-2.7,1-5.6-0.4-6.6-3.1c-1-2.7,0.4-5.6,3.1-6.6c0.8-0.3,1.6-0.4,2.4-0.3l5.6-0.3l4.6-0.2l0,0
		c0.1,0,0.2,0,0.2,0l0.3,0.3c-0.1,0.2-0.3,0.3-0.5,0.4l0,0.1l-3.1,3l-2.6,2.5C819.5,1440.7,818.2,1442.4,816.3,1443z"/>
	<path class="st15" d="M812.8,1461.2c-2.7,1-5.7-0.3-6.7-3c-1-2.7,0.3-5.7,3-6.7c0.8-0.3,1.6-0.4,2.4-0.3l5.6-0.4l4.6-0.3l0,0
		c0.1,0,0.2,0,0.2,0l0.3,0.3c-0.1,0.2-0.3,0.3-0.5,0.4l0,0.1l-3.1,3l-2.6,2.5C815.9,1458.8,814.6,1460.5,812.8,1461.2z"/>
	<path class="st15" d="M812.8,1475.8c-2.5,1.4-5.6,0.5-7-1.9c-1.4-2.5-0.5-5.6,1.9-7c0.7-0.4,1.5-0.6,2.3-0.7l5.5-1.2l4.5-1l0,0
		c0.1,0,0.2,0,0.2,0l0.4,0.3c-0.1,0.2-0.3,0.4-0.4,0.5l0,0.1l-2.6,3.4l-2.2,2.9C815.5,1473,814.5,1474.9,812.8,1475.8z"/>
	<path class="st15" d="M815.8,1494.9c-2.4,1.6-5.6,1-7.2-1.4c-1.6-2.4-1-5.6,1.4-7.2c0.7-0.5,1.4-0.7,2.2-0.8l5.4-1.7l4.4-1.3l0,0
		c0.1,0,0.2,0,0.2-0.1l0.4,0.2c-0.1,0.2-0.2,0.4-0.4,0.5l0,0.1l-2.3,3.6l-1.9,3.1C818.2,1491.9,817.4,1493.8,815.8,1494.9z"/>
	<path class="st15" d="M822.9,1511.7c-1.2,2.6-4.3,3.7-6.9,2.4c-2.6-1.2-3.7-4.3-2.4-6.9c0.3-0.7,0.9-1.4,1.5-1.9l3.8-4.1l3.1-3.4
		l0,0c0.1-0.1,0.1-0.1,0.2-0.2l0.4,0c0,0.2,0,0.4-0.1,0.7l0.1,0l-0.1,4.3l-0.1,3.6C823.5,1507.9,823.7,1510,822.9,1511.7z"/>
	<path class="st15" d="M832.1,1530.9c-1.7,2.3-5,2.7-7.2,1c-2.3-1.7-2.7-5-1-7.2c0.5-0.6,1.1-1.1,1.8-1.5l4.5-3.3l3.7-2.7l0,0
		c0.1,0,0.1-0.1,0.2-0.1l0.4,0.1c0,0.2-0.1,0.4-0.2,0.6l0,0.1l-1,4.2l-0.8,3.5C833.5,1527.3,833.3,1529.4,832.1,1530.9z"/>
	<path class="st15" d="M845.6,1548.7c-1.1,2.6-4.1,3.9-6.7,2.8c-2.6-1.1-3.9-4.1-2.8-6.7c0.3-0.8,0.8-1.4,1.4-1.9l3.6-4.3l2.9-3.5
		l0,0c0-0.1,0.1-0.1,0.2-0.2l0.4,0c0,0.2,0,0.4,0,0.7l0.1,0l0.1,4.3l0.1,3.6C846.1,1544.8,846.4,1546.9,845.6,1548.7z"/>
	<path class="st15" d="M821.3,1419.2c-1.7,2.3-4.9,2.8-7.2,1.1c-2.3-1.7-2.8-4.9-1.1-7.2c0.5-0.7,1.1-1.2,1.8-1.5l4.5-3.3l3.7-2.7
		l0,0c0.1,0,0.1-0.1,0.2-0.1l0.4,0.1c0,0.2-0.1,0.4-0.2,0.6l0,0.1l-1,4.2l-0.8,3.5C822.7,1415.5,822.5,1417.6,821.3,1419.2z"/>
</g>
<line class="st6" x1="404.7" y1="1813.1" x2="404.7" y2="1919.9"/>
<line class="st6" x1="718.1" y1="1813.1" x2="718.1" y2="1919.9"/>
<line class="st6" x1="764" y1="1855" x2="764" y2="1919.8"/>
<line class="st6" x1="821.4" y1="1879.1" x2="821.4" y2="1920"/>
<line class="st6" x1="862.7" y1="1899.6" x2="862.7" y2="1920"/>
<g>
	<path class="st14" d="M944.6,1357.8c-61.7-14.8-124.4,26.3-140.1,92"/>
	<path class="st15" d="M925.2,1349.8c-0.8,2.8,0.9,5.6,3.6,6.3c2.8,0.8,5.6-0.9,6.3-3.6c0.2-0.8,0.2-1.6,0.1-2.4l-0.2-5.6l-0.2-4.6
		l0,0c0-0.1,0-0.2,0-0.2l-0.3-0.3c-0.1,0.2-0.3,0.3-0.4,0.5l-0.1,0l-2.7,3.3l-2.3,2.8C927.2,1346.5,925.7,1347.9,925.2,1349.8z"/>
	<path class="st15" d="M910.7,1350.5c0.3,2.8,2.9,4.9,5.7,4.5c2.8-0.3,4.9-2.9,4.5-5.7c-0.1-0.8-0.4-1.6-0.8-2.2l-2.3-5.1l-1.9-4.2
		l0,0c0-0.1-0.1-0.1-0.1-0.2l-0.4-0.1c-0.1,0.2-0.1,0.4-0.1,0.6l-0.1,0l-1.2,4.1l-1,3.5C911.3,1346.6,910.4,1348.5,910.7,1350.5z"/>
	<path class="st15" d="M894.2,1350.9c0.3,2.8,2.9,4.9,5.7,4.5c2.8-0.3,4.9-2.9,4.5-5.7c-0.1-0.8-0.4-1.6-0.8-2.2l-2.3-5.1l-1.9-4.2
		l0,0c0-0.1-0.1-0.1-0.1-0.2l-0.4-0.1c-0.1,0.2-0.1,0.4-0.1,0.6l-0.1,0l-1.2,4.1l-1,3.5C894.8,1347.1,893.9,1349,894.2,1350.9z"/>
	<path class="st15" d="M877.6,1355.1c0.3,2.8,2.9,4.8,5.8,4.5s4.8-2.9,4.5-5.8c-0.1-0.8-0.4-1.6-0.8-2.2l-2.3-5.1l-1.9-4.2l0,0
		c0-0.1-0.1-0.1-0.1-0.2l-0.4-0.1c-0.1,0.2-0.1,0.4-0.1,0.6l-0.1,0l-1.2,4.1l-1,3.5C878.2,1351.3,877.3,1353.1,877.6,1355.1z"/>
	<path class="st15" d="M862.3,1362.8c1.1,2.6,4.1,3.9,6.7,2.9c2.6-1.1,3.9-4.1,2.9-6.7c-0.3-0.7-0.8-1.4-1.4-1.9l-3.5-4.4l-2.9-3.6
		l0,0c0-0.1-0.1-0.1-0.2-0.2l-0.4,0c0,0.2,0,0.4,0,0.6l-0.1,0l-0.1,4.3l-0.1,3.6C861.9,1358.9,861.6,1361,862.3,1362.8z"/>
	<path class="st15" d="M847,1372.5c1.4,2.5,4.6,3.3,7.1,1.9s3.3-4.6,1.9-7.1c-0.4-0.7-1-1.3-1.7-1.7l-4.1-3.8l-3.4-3.1l0,0
		c-0.1-0.1-0.1-0.1-0.2-0.2l-0.4,0.1c0,0.2,0,0.4,0.1,0.7l0,0.1l0.5,4.3l0.4,3.6C846,1368.7,846,1370.8,847,1372.5z"/>
	<path class="st15" d="M834.7,1384.2c1.8,2.2,5,2.6,7.3,0.8c2.2-1.8,2.6-5,0.8-7.3c-0.5-0.6-1.2-1.1-1.9-1.5l-4.7-3.1l-3.8-2.6l0,0
		c-0.1,0-0.1-0.1-0.2-0.1l-0.4,0.1c0,0.2,0.1,0.4,0.2,0.6l0,0.1l1.1,4.1l1,3.5C833.2,1380.6,833.4,1382.7,834.7,1384.2z"/>
	<path class="st15" d="M818.9,1397.6c0.9,2.7,3.8,4.2,6.5,3.3c2.7-0.9,4.2-3.8,3.3-6.5c-0.3-0.8-0.7-1.5-1.3-2.1l-3.3-4.6l-2.7-3.7
		l0,0c0-0.1-0.1-0.1-0.1-0.2l-0.4,0c0,0.2,0,0.4,0,0.6l-0.1,0l-0.4,4.3l-0.3,3.6C818.8,1393.7,818.3,1395.7,818.9,1397.6z"/>
	<path class="st15" d="M918.9,1364c-1.6-2.4-1-5.6,1.3-7.2s5.6-1,7.2,1.3c0.5,0.7,0.7,1.4,0.9,2.2l1.7,5.4l1.4,4.4l0,0
		c0,0.1,0,0.1,0.1,0.2l-0.2,0.4c-0.2-0.1-0.4-0.2-0.5-0.4l-0.1,0l-3.6-2.3l-3.1-1.9C921.9,1366.4,920,1365.6,918.9,1364z"/>
	<path class="st15" d="M900.4,1365.1c-1.7-2.3-1.1-5.5,1.2-7.2c2.3-1.7,5.5-1.1,7.2,1.2c0.5,0.7,0.8,1.4,0.9,2.2l1.8,5.3l1.4,4.4
		l0,0c0,0.1,0,0.1,0.1,0.2l-0.2,0.4c-0.2-0.1-0.4-0.2-0.5-0.4l-0.1,0l-3.7-2.2l-3.1-1.8C903.5,1367.5,901.6,1366.7,900.4,1365.1z"/>
	<path class="st15" d="M886.3,1368.7c-2-2-1.9-5.3,0.1-7.3c2-2,5.3-1.9,7.3,0.1c0.6,0.6,1,1.3,1.2,2.1l2.6,5l2.1,4.1l0,0
		c0,0.1,0.1,0.1,0.1,0.2l-0.2,0.4c-0.2-0.1-0.4-0.2-0.6-0.3l-0.1,0l-4-1.6l-3.3-1.4C889.6,1370.6,887.6,1370.1,886.3,1368.7z"/>
	<path class="st15" d="M868.6,1376.4c-2.1-1.9-2.4-5.1-0.5-7.3s5.1-2.4,7.3-0.5c0.6,0.5,1.1,1.2,1.4,1.9l2.9,4.8l2.4,3.9l0,0
		c0,0.1,0.1,0.1,0.1,0.2l-0.1,0.4c-0.2,0-0.4-0.1-0.6-0.2l-0.1,0l-4.1-1.3l-3.4-1.1C872.1,1378,870,1377.7,868.6,1376.4z"/>
	<path class="st15" d="M854,1387.5c-2.8-0.5-4.6-3.3-4.1-6.1c0.5-2.8,3.3-4.6,6.1-4.1c0.8,0.2,1.5,0.5,2.2,1l5,2.7l4,2.2l0,0
		c0.1,0,0.1,0.1,0.2,0.1l0.1,0.4c-0.2,0.1-0.4,0.1-0.7,0.1l0,0.1l-4.2,0.9l-3.5,0.8C857.9,1387.1,855.9,1387.9,854,1387.5z"/>
	<path class="st15" d="M837.7,1401.2c-2.6-1.1-3.9-4.1-2.8-6.7c1.1-2.6,4.1-3.9,6.7-2.8c0.7,0.3,1.4,0.8,1.9,1.4l4.3,3.6l3.5,2.9
		l0,0c0.1,0,0.1,0.1,0.2,0.2l0,0.4c-0.2,0-0.4,0-0.6,0l0,0.1l-4.3,0.1l-3.6,0.1C841.6,1401.6,839.5,1402,837.7,1401.2z"/>
	<path class="st15" d="M823.9,1418.8c-2.8-0.4-4.8-3-4.4-5.8c0.4-2.8,3-4.8,5.8-4.4c0.8,0.1,1.6,0.4,2.2,0.9l5.1,2.4l4.2,1.9l0,0
		c0.1,0,0.1,0.1,0.2,0.1l0.1,0.4c-0.2,0.1-0.4,0.1-0.6,0.1l0,0.1l-4.1,1.2l-3.5,1C827.8,1418.2,825.9,1419,823.9,1418.8z"/>
	<path class="st15" d="M943.3,1362.8c-2.6-1.1-3.9-4.1-2.8-6.7s4.1-3.9,6.7-2.8c0.8,0.3,1.4,0.8,2,1.4l4.3,3.6l3.5,2.9l0,0
		c0.1,0,0.1,0.1,0.2,0.2l0,0.4c-0.2,0-0.4,0-0.6,0l0,0.1l-4.3,0.1l-3.6,0.1C947.1,1363.2,945.1,1363.5,943.3,1362.8z"/>
</g>
<g>
	<polygon class="st16" points="864,1385.8 873.4,1466.7 791.3,1455.5 781.9,1374.5 	"/>
	<polygon class="st16" points="1041.8,1473.6 1053.5,1567.6 949,1554.9 937.4,1460.9 	"/>
	<polygon class="st17" points="1004.5,1422.3 1017.4,1533.5 1016.9,1534.7 836.7,1510.1 823.6,1397.6 	"/>
	<g class="st18">
		<path class="st15" d="M899.2,1489.1l4.5-0.5l1.7,14.8l-4.5,0.5l-40.8,4.7l-4.5,0.5l-14,1.6l30.4-63.9l-33.9,3.9l-3.4,0.4
			l-1.7-14.8l45.3-5.3l1.3-0.1l2.2-0.3l15.1-1.8l-30.3,63.9L899.2,1489.1z"/>
		<path class="st15" d="M924.1,1501.1l-8.6-74.4l15.1-1.8l8.6,74.4L924.1,1501.1z"/>
		<path class="st15" d="M980.3,1494.8c-3.1,0.4-6.1,0.1-8.9-0.7c-2.9-0.8-5.5-2.1-7.8-4c-2.4-1.9-4.3-4.1-5.8-6.7
			c-1.5-2.6-2.4-5.4-2.7-8.4l14.9-1.7c0.2,2.1,1.2,3.8,2.9,5.2c1.7,1.3,3.6,1.9,5.7,1.6c2.2-0.3,3.9-1.2,5.3-2.9
			c1.4-1.7,1.9-3.6,1.7-5.7c-0.1-1.3-0.4-2.1-0.6-2.5c-0.3-0.4-0.6-0.7-1-0.9c-0.9-0.6-2.3-1.2-4-1.8c-1.8-0.6-3.6-1.2-5.6-1.8
			c-5.8-1.1-10.5-2.8-14.1-5.3c-2.5-1.7-4.5-3.8-6-6.2c-1.5-2.4-2.4-5.2-2.7-8.2c-0.4-3-0.1-6,0.7-8.8c0.8-2.9,2.2-5.5,4.1-7.8
			c1.8-2.4,4.1-4.3,6.7-5.8c2.6-1.5,5.5-2.4,8.5-2.7c3.1-0.4,6.1-0.1,8.9,0.7s5.5,2.2,7.9,4.1c2.3,1.9,4.3,4.1,5.8,6.7
			c1.5,2.6,2.4,5.4,2.8,8.4l-14.9,1.7c-0.2-2.1-1.2-3.8-2.9-5.2c-1.7-1.3-3.7-1.9-5.8-1.6c-2.1,0.2-3.8,1.2-5.2,2.9
			c-1.4,1.7-1.9,3.6-1.7,5.7c0,0.4,0.2,0.9,0.3,1.5c0.2,0.6,0.6,1.2,1.3,1.8c0.7,0.6,1.8,1.3,3.2,1.9c1.4,0.6,3.4,1.2,6,1.6l0.4,0.1
			l0.3,0.1c3,0.8,5.7,1.6,8.1,2.5c2.4,0.8,4.6,1.9,6.4,3.3c4.5,3.2,7.2,7.8,7.9,13.9c0.3,3,0.1,6-0.8,8.8c-0.9,2.9-2.2,5.5-4.1,7.8
			c-1.9,2.4-4.2,4.3-6.8,5.7C986.2,1493.6,983.3,1494.5,980.3,1494.8z"/>
	</g>
</g>
<path class="st14" d="M1041.6,1473.6c0-39.1-18.5-76.3-52.7-97.5"/>
<path class="st15" d="M1008.1,1378.9l0.4-3.6l0.5-4.3l-0.1,0c0.1-0.2,0.1-0.4,0.1-0.6l-0.4,0c-0.1,0-0.1,0.1-0.2,0.2l0,0l-3.4,3.1
	l-4.1,3.8c-0.7,0.4-1.2,1-1.6,1.7c-1.4,2.5-0.6,5.6,1.9,7.1c2.5,1.4,5.6,0.6,7.1-1.9C1009.2,1382.6,1009.1,1380.5,1008.1,1378.9z"/>
<path class="st15" d="M1019.8,1390l1.7-3.2l2-3.8l0-0.1c0.1-0.2,0.3-0.4,0.3-0.6l-0.4-0.2c-0.1,0-0.1,0-0.2,0.1l0,0l-4.3,1.6l-5.3,2
	c-0.8,0.2-1.5,0.5-2.2,1c-2.2,1.8-2.7,5-0.9,7.3s5,2.7,7.3,0.9C1019.5,1393.9,1020.2,1391.9,1019.8,1390z"/>
<path class="st15" d="M1031.2,1402l1.7-3.2l2-3.8l0-0.1c0.1-0.2,0.3-0.4,0.3-0.6l-0.4-0.2c-0.1,0-0.1,0-0.2,0.1l0,0l-4.3,1.6l-5.3,2
	c-0.8,0.2-1.5,0.5-2.2,1c-2.2,1.8-2.7,5-0.9,7.3c1.8,2.2,5,2.7,7.3,0.9C1030.8,1405.9,1031.5,1403.9,1031.2,1402z"/>
<path class="st15" d="M1039.9,1416.7l1.7-3.2l2-3.8l0-0.1c0.1-0.2,0.3-0.4,0.3-0.6l-0.4-0.2c-0.1,0-0.1,0-0.2,0.1l0,0l-4.3,1.6
	l-5.3,2c-0.8,0.2-1.5,0.5-2.2,1c-2.3,1.7-2.7,5-0.9,7.2c1.7,2.3,5,2.7,7.2,0.9C1039.5,1420.6,1040.3,1418.6,1039.9,1416.7z"/>
<path class="st15" d="M1046.4,1433.6l2.5-2.6l2.9-3.1l0-0.1c0.2-0.1,0.3-0.3,0.5-0.4l-0.3-0.3c-0.1,0-0.2,0-0.2,0l0,0l-4.6,0.5
	l-5.6,0.6c-0.8,0-1.6,0.1-2.3,0.4c-2.6,1.1-3.9,4.1-2.7,6.8c1.1,2.6,4.1,3.9,6.8,2.7C1045.1,1437.3,1046.3,1435.6,1046.4,1433.6z"/>
<path class="st15" d="M1051,1451.9l2.8-2.2l3.4-2.6l0-0.1c0.2-0.1,0.4-0.2,0.5-0.4l-0.3-0.3c-0.1,0-0.2,0-0.2,0l0,0l-4.6-0.2
	l-5.6-0.3c-0.8-0.2-1.6-0.2-2.4,0c-2.8,0.7-4.4,3.5-3.7,6.3s3.5,4.4,6.3,3.7C1049.1,1455.3,1050.5,1453.8,1051,1451.9z"/>
<path class="st15" d="M1051.9,1469.5l3.2-1.8l3.7-2.1l0-0.1c0.2-0.1,0.4-0.2,0.6-0.3l-0.2-0.4c-0.1,0-0.2,0-0.2-0.1l0,0l-4.5-0.9
	l-5.5-1.1c-0.8-0.3-1.6-0.4-2.4-0.3c-2.8,0.3-4.9,2.8-4.6,5.7c0.3,2.8,2.8,4.9,5.7,4.6C1049.5,1472.6,1051.2,1471.3,1051.9,1469.5z"
	/>
<path class="st15" d="M1052,1488.8l2.3-2.8l2.7-3.3l0-0.1c0.2-0.1,0.3-0.3,0.4-0.5l-0.3-0.3c-0.1,0-0.2,0-0.2,0l0,0l-4.5,0.8
	l-5.5,0.9c-0.8,0-1.6,0.2-2.4,0.6c-2.5,1.3-3.6,4.4-2.3,6.9c1.3,2.5,4.4,3.6,6.9,2.3C1050.9,1492.5,1052,1490.7,1052,1488.8z"/>
<path class="st15" d="M997.5,1396.8l-3.5-0.8l-4.2-1l0-0.1c-0.2,0-0.4,0-0.6-0.1l0.1-0.4c0.1,0,0.1-0.1,0.2-0.1l0,0l4.1-2.1l5-2.6
	c0.6-0.5,1.4-0.8,2.2-1c2.8-0.5,5.5,1.3,6,4.1c0.5,2.8-1.3,5.5-4.1,6C1000.7,1399.1,998.7,1398.3,997.5,1396.8z"/>
<path class="st15" d="M1009.8,1410.6l-3.5-0.9l-4.2-1.1l0-0.1c-0.2,0-0.4,0-0.6-0.1l0.1-0.4c0.1,0,0.1-0.1,0.2-0.1l0,0l4.1-2l5-2.5
	c0.7-0.5,1.4-0.8,2.2-0.9c2.8-0.5,5.5,1.5,5.9,4.3c0.5,2.8-1.5,5.5-4.3,5.9C1012.9,1412.9,1010.9,1412.1,1009.8,1410.6z"/>
<path class="st15" d="M1017.6,1422.5l-3.3-1.4l-4-1.7l0-0.1c-0.2,0-0.4-0.1-0.6-0.2l0.2-0.4c0.1,0,0.1-0.1,0.2-0.1l0,0l4.4-1.4
	l5.4-1.7c0.7-0.4,1.5-0.6,2.3-0.6c2.9,0,5.2,2.2,5.2,5.1s-2.2,5.2-5.1,5.2C1020.3,1425.3,1018.5,1424.2,1017.6,1422.5z"/>
<path class="st15" d="M1024.8,1440l-3.2-1.7l-3.8-2l0-0.1c-0.2-0.1-0.4-0.1-0.6-0.3l0.2-0.4c0.1,0,0.1,0,0.2-0.1l0,0l4.5-1.1
	l5.5-1.3c0.7-0.3,1.5-0.4,2.4-0.4c2.8,0.2,5,2.7,4.8,5.5c-0.2,2.8-2.7,5-5.5,4.8C1027.3,1443.1,1025.6,1441.8,1024.8,1440z"/>
<path class="st15" d="M1029.4,1456.4l-1.9-3.1l-2.3-3.6l0-0.1c-0.2-0.2-0.3-0.3-0.4-0.5l0.4-0.2c0.1,0,0.2,0,0.2,0.1l0,0l4.4,1.3
	l5.4,1.6c0.8,0.1,1.6,0.4,2.2,0.8c2.4,1.6,3,4.8,1.4,7.2c-1.6,2.4-4.8,3-7.2,1.4C1030,1460.2,1029.1,1458.4,1029.4,1456.4z"/>
<path class="st15" d="M1037.4,1478.2l-2.5-2.6l-2.9-3.1l0-0.1c-0.2-0.1-0.3-0.3-0.5-0.4l0.3-0.3c0.1,0,0.2,0,0.2,0l0,0l4.6,0.4
	l5.6,0.6c0.8,0,1.6,0.1,2.3,0.4c2.6,1.1,3.9,4.1,2.8,6.8c-1.1,2.6-4.1,3.9-6.8,2.8C1038.8,1481.8,1037.6,1480.1,1037.4,1478.2z"/>
<path class="st15" d="M1033.8,1502.1l-1.8-3.2l-2.1-3.7l0-0.1c-0.1-0.2-0.3-0.3-0.4-0.6l0.4-0.2c0.1,0,0.1,0,0.2,0.1l0,0l4.3,1.6
	l5.3,1.9c0.8,0.1,1.5,0.5,2.2,1c2.3,1.7,2.7,5,1,7.2c-1.7,2.3-5,2.7-7.2,1C1034.2,1505.9,1033.4,1504,1033.8,1502.1z"/>
<path class="st15" d="M983.1,1376.2l-2.5-2.6l-2.9-3.1l0-0.1c-0.2-0.1-0.3-0.3-0.5-0.4l0.3-0.3c0.1,0,0.2,0,0.2,0l0,0l4.6,0.5
	l5.6,0.6c0.8-0.1,1.6,0.1,2.4,0.4c2.6,1.1,3.9,4.1,2.7,6.8c-1.1,2.6-4.1,3.9-6.8,2.7C984.4,1379.9,983.2,1378.2,983.1,1376.2z"/>
<g>
	<path class="st14" d="M1028,1540.5c12.9-20.1,19.4-44,17.2-69"/>
	<path class="st14" d="M952,1593.5c32.4-7.6,59.4-27.1,76-53"/>
	<path class="st15" d="M1054.5,1488.6l3.1-1.8l3.7-2.2l0-0.1c0.2-0.1,0.4-0.2,0.6-0.3l-0.2-0.4c-0.1,0-0.2,0-0.2-0.1l0,0l-4.5-0.8
		l-5.5-1c-0.8-0.3-1.6-0.4-2.4-0.3c-2.8,0.3-4.9,2.9-4.5,5.7c0.3,2.8,2.9,4.9,5.7,4.5C1052.2,1491.8,1053.8,1490.5,1054.5,1488.6z"
		/>
	<path class="st15" d="M1052.6,1504.7l3.6-0.5l4.2-0.6l0-0.1c0.2,0,0.4,0,0.7-0.1l-0.1-0.4c-0.1,0-0.1-0.1-0.2-0.1l0,0l-3.9-2.5
		l-4.7-3c-0.6-0.5-1.3-0.9-2.1-1.2c-2.8-0.8-5.6,0.9-6.4,3.6c-0.8,2.8,0.9,5.6,3.6,6.4C1049.3,1506.7,1051.3,1506.2,1052.6,1504.7z"
		/>
	<path class="st15" d="M1049.7,1521l3.6-0.5l4.2-0.6l0-0.1c0.2,0,0.4,0,0.7-0.1l-0.1-0.4c-0.1,0-0.1-0.1-0.2-0.1l0,0l-3.9-2.5
		l-4.7-3c-0.6-0.5-1.3-0.9-2.1-1.2c-2.8-0.8-5.6,0.9-6.4,3.6c-0.8,2.8,0.9,5.6,3.6,6.4C1046.4,1523,1048.4,1522.4,1049.7,1521z"/>
	<path class="st15" d="M1043.1,1536.8l3.6-0.5l4.2-0.6l0-0.1c0.2,0,0.4,0,0.7-0.1l-0.1-0.4c-0.1,0-0.1-0.1-0.2-0.1l0,0l-3.9-2.5
		l-4.7-3c-0.6-0.5-1.3-0.9-2.1-1.1c-2.7-0.8-5.6,0.8-6.4,3.6c-0.8,2.7,0.8,5.6,3.6,6.4C1039.8,1538.8,1041.8,1538.2,1043.1,1536.8z"
		/>
	<path class="st15" d="M1033.5,1552.1l3.6,0.4l4.3,0.5l0.1,0c0.2,0.1,0.4,0.1,0.6,0.1l0.1-0.4c0-0.1-0.1-0.1-0.2-0.2l0,0l-3.1-3.4
		l-3.8-4.1c-0.4-0.7-1-1.2-1.7-1.6c-2.5-1.4-5.6-0.6-7.1,1.8c-1.4,2.5-0.6,5.6,1.8,7.1C1029.7,1553.2,1031.8,1553.2,1033.5,1552.1z"
		/>
	<path class="st15" d="M1021.5,1566.6l3.5,0.9l4.1,1.1l0.1,0c0.2,0.1,0.4,0.2,0.6,0.2l0.1-0.4c0-0.1-0.1-0.1-0.1-0.2l0,0l-2.6-3.8
		l-3.2-4.7c-0.3-0.7-0.8-1.4-1.5-1.9c-2.2-1.8-5.5-1.4-7.3,0.8c-1.8,2.2-1.4,5.5,0.8,7.3C1017.7,1567.2,1019.8,1567.4,1021.5,1566.6
		z"/>
	<path class="st15" d="M1007.9,1577.9l3.3,1.5l3.9,1.7l0.1,0c0.2,0.1,0.4,0.2,0.6,0.3l0.2-0.4c0-0.1-0.1-0.1-0.1-0.2l0,0l-2-4.1
		l-2.4-5.1c-0.2-0.8-0.6-1.5-1.2-2.1c-1.9-2.1-5.2-2.2-7.3-0.3c-2.1,1.9-2.2,5.2-0.3,7.3C1004,1577.8,1006.1,1578.4,1007.9,1577.9z"
		/>
	<path class="st15" d="M992.6,1589.5l3.6,0.2l4.3,0.2l0.1-0.1c0.2,0.1,0.4,0.1,0.6,0.1l0-0.4c-0.1-0.1-0.1-0.1-0.2-0.2l0,0l-3.3-3.2
		l-4.1-3.9c-0.5-0.7-1.1-1.2-1.8-1.6c-2.5-1.3-5.7-0.3-6.9,2.3s-0.3,5.7,2.3,6.9C988.9,1590.8,991,1590.7,992.6,1589.5z"/>
	<path class="st15" d="M1025.2,1522.3l-0.9-3.5l-1-4.2l0-0.1c-0.1-0.2-0.2-0.4-0.2-0.6l0.4-0.1c0.1,0,0.1,0.1,0.2,0.1l0,0l3.7,2.7
		l4.6,3.3c0.7,0.4,1.4,0.9,1.9,1.5c1.7,2.3,1.3,5.5-1,7.2c-2.3,1.7-5.5,1.3-7.2-1C1024.5,1526.1,1024.3,1524,1025.2,1522.3z"/>
	<path class="st15" d="M1015.4,1538.6l-0.6-3.6l-0.7-4.2l0-0.1c-0.1-0.2-0.1-0.4-0.1-0.6l0.4-0.1c0.1,0,0.1,0.1,0.2,0.1l0,0l3.5,3
		l4.3,3.6c0.7,0.4,1.3,1,1.7,1.7c1.5,2.4,0.9,5.6-1.5,7.1c-2.4,1.5-5.6,0.9-7.1-1.5C1014.5,1542.4,1014.4,1540.3,1015.4,1538.6z"/>
	<path class="st15" d="M1005,1552l1.3-3.4l1.5-4l0.1,0c0-0.2,0.1-0.4,0.2-0.6l0.4,0.2c0,0.1,0.1,0.1,0.1,0.2l0,0l1.5,4.3l1.9,5.3
		c0.4,0.7,0.6,1.5,0.7,2.3c0.1,2.8-2.1,5.3-4.9,5.4c-2.8,0.1-5.3-2.1-5.4-4.9C1002.3,1554.8,1003.3,1553,1005,1552z"/>
	<path class="st15" d="M988,1565.6l0.6-3.6l0.7-4.2l0.1,0c0-0.2,0-0.4,0.1-0.6l0.4,0.1c0,0.1,0.1,0.1,0.1,0.2l0,0l2.4,3.9l2.9,4.8
		c0.5,0.6,0.9,1.3,1.1,2.1c0.7,2.8-1,5.6-3.8,6.3c-2.8,0.7-5.6-1-6.3-3.8C985.9,1568.9,986.6,1566.9,988,1565.6z"/>
	<path class="st15" d="M969.8,1577.3l1.5-3.3l1.8-3.9l0.1,0c0-0.2,0.1-0.4,0.2-0.6l0.4,0.2c0,0.1,0.1,0.1,0.1,0.2l0,0l1.3,4.4
		l1.6,5.4c0.4,0.7,0.5,1.5,0.5,2.3c0,2.9-2.4,5.1-5.2,5.1c-2.9,0-5.1-2.4-5.1-5.2C967,1579.9,968.1,1578.1,969.8,1577.3z"/>
</g>
</svg>
