<svg xmlns="http://www.w3.org/2000/svg" xmlns:xlink="http://www.w3.org/1999/xlink" viewBox="0 0 1080 1920"><defs><style>.cls-1,.cls-27{fill:none;}.cls-2{fill:#0971ff;}.cls-3{fill:#f50006;}.cls-4{clip-path:url(#clip-path);}.cls-5,.cls-9{fill:#00296d;opacity:0.4;}.cls-6{fill:#83bd00;}.cls-7{fill:#ffbe94;}.cls-8{fill:#16b000;}.cls-9{font-size:71.24px;font-family:Antraste, Antraste;}.cls-10{fill:#ff1f82;}.cls-11{fill:#d4ffa3;}.cls-12{fill:#ff96bf;}.cls-13{fill:#ffcb7a;}.cls-14{fill:#9aff8d;}.cls-15{fill:#ff76a5;}.cls-16{fill:#ffa96d;}.cls-17{fill:#e6e6e6;}.cls-18{fill:#f1b700;}.cls-19{fill:#ad7f00;}.cls-20{fill:#916b00;}.cls-21{fill:#d3ffed;}.cls-22,.cls-26{fill:#0c0800;}.cls-22,.cls-34{opacity:0.2;}.cls-23{fill:#999;}.cls-24{fill:#666;}.cls-25{fill:gray;}.cls-26{opacity:0.25;}.cls-27{stroke:#916b00;stroke-miterlimit:10;}.cls-28{fill:#562f00;}.cls-29{fill:#008b8d;}.cls-30{fill:#006a7a;}.cls-31,.cls-32{fill:#00374a;}.cls-32{opacity:0.8;}.cls-33{clip-path:url(#clip-path-2);}.cls-34{fill:#020202;}.cls-35,.cls-39{opacity:0.6;}.cls-36{fill:#1c5600;}.cls-37{fill:#9851ff;}.cls-38{fill:#6e00bf;}.cls-39{fill:#000a56;}.cls-40{fill:#000402;}</style><clipPath id="clip-path"><rect class="cls-1" x="31" y="1776" width="1074" height="667"/></clipPath><clipPath id="clip-path-2"><ellipse class="cls-1" cx="753" cy="1799.69" rx="75" ry="66.91"/></clipPath></defs><title>Artboard 1</title><g id="Layer_7" data-name="Layer 7"><rect class="cls-2" x="419" y="1768" width="45" height="26" transform="translate(-572.6 251.79) rotate(-19.63)"/></g><g id="Layer_4" data-name="Layer 4"><polyline class="cls-2" points="422.43 1774 1080 1774 1080 1920 31 1920"/><polygon class="cls-3" points="260 1698 260 1834.81 233 1845.2 233 1754.94 221.4 1784.96 221.4 1848.69 202 1856 202 1786 189 1755.89 189 1861.25 151 1875 151 1698 260 1698"/><polygon class="cls-3" points="348 1698 348 1801.9 325.16 1810.7 325.16 1734.39 318.3 1747.5 318.3 1813.42 299.27 1820.6 299.27 1748.26 293.94 1737.92 293.94 1822.31 265 1832.78 265 1698 348 1698"/><path class="cls-3" d="M400.32,1717,374,1699.26l-2.06-1.39H353.16V1800.7l20.84-8v-31.78l8.3,5.61V1789l18.7-5.62v-65.92ZM374,1746.41v-25.63l8.3,5.6V1752Z"/><polyline class="cls-3" points="416 1776 416 1700 448 1700 448 1770.07"/><g class="cls-4"><ellipse class="cls-5" cx="715" cy="1647.5" rx="296" ry="272.5"/><circle class="cls-5" cx="719" cy="1590" r="296"/><circle class="cls-5" cx="758" cy="1529" r="296"/><path class="cls-5" d="M554,1920c-70-48.3-115-123.93-115-208.95C439,1565.22,571.52,1447,735,1447s296,118.22,296,264.05c0,84.21-44.18,159.21-113,207.56"/></g><ellipse class="cls-6" cx="859.5" cy="1856.5" rx="10.5" ry="15.5"/><circle class="cls-7" cx="859.5" cy="1838.5" r="9.5"/><circle class="cls-8" cx="858.5" cy="1852.5" r="2.5" transform="translate(-1104.07 2415.63) rotate(-81.15)"/><circle class="cls-7" cx="844.5" cy="1849.5" r="2.5"/><rect class="cls-8" x="846.08" y="1849" width="12" height="5" transform="translate(295.14 -109.09) rotate(8.85)"/></g><g id="Layer_6" data-name="Layer 6"><text class="cls-9" transform="translate(188.45 1922.15) rotate(-20.53) scale(0.98 1)">ZuRICH</text></g><g id="Layer_3" data-name="Layer 3"><polyline class="cls-10" points="711.85 1627.57 711.68 1562.06 757.88 1561.94 758.2 1687.88"/><rect class="cls-11" x="710" y="1620" width="129" height="91"/><rect class="cls-12" x="619" y="1582" width="96" height="178"/><rect class="cls-13" x="490" y="1671" width="129" height="89"/><polyline class="cls-14" points="774.5 1600 839 1600 839 1620 715 1620"/><polyline class="cls-15" points="665.59 1562 715 1562 715 1582 620 1582"/><polyline class="cls-16" points="552.42 1651 619 1651 619 1671 491 1671"/><polyline class="cls-15" points="713.86 1582 666 1582 666 1562 758 1562"/><rect class="cls-17" x="449" y="1760" width="201" height="33"/></g><g id="Layer_2" data-name="Layer 2"><polyline class="cls-18" points="839 1776 839 1306 927 1306 927 1838"/><polyline class="cls-19" points="927 1838 927 1306 1015 1306 1015 1776"/><circle class="cls-20" cx="887.15" cy="1404.96" r="30.85"/><circle class="cls-21" cx="879.85" cy="1403.34" r="30.85"/><polyline class="cls-22" points="839 1378.87 839 1293 927 1293 927 1537"/><polygon class="cls-20" points="928 1447 928 1507 920.73 1507 833.61 1466.66 830.5 1447 928 1447"/><rect class="cls-23" x="658" y="1711" width="181" height="65"/><polyline class="cls-24" points="650 1793 650 1760 658 1760 658 1776"/><rect class="cls-25" x="492" y="1760" width="3" height="33"/><rect class="cls-25" x="500" y="1760" width="3" height="33"/><rect class="cls-25" x="508" y="1760" width="3" height="33"/><rect class="cls-25" x="516" y="1760" width="3" height="33"/><rect class="cls-25" x="524" y="1760" width="3" height="33"/><rect class="cls-25" x="532" y="1760" width="3" height="33"/><rect class="cls-25" x="538" y="1760" width="3" height="33"/><rect class="cls-25" x="546" y="1760" width="3" height="33"/><rect class="cls-25" x="554" y="1760" width="3" height="33"/><rect class="cls-25" x="561" y="1760" width="3" height="33"/><rect class="cls-25" x="569" y="1760" width="3" height="33"/><rect class="cls-25" x="577" y="1760" width="3" height="33"/><rect class="cls-25" x="585" y="1760" width="3" height="33"/><rect class="cls-25" x="593" y="1760" width="3" height="33"/><rect class="cls-25" x="601" y="1760" width="3" height="33"/><rect class="cls-25" x="601" y="1760" width="3" height="33"/><rect class="cls-25" x="609" y="1760" width="3" height="33"/><rect class="cls-25" x="617" y="1760" width="3" height="33"/><rect class="cls-25" x="624" y="1760" width="3" height="33"/><rect class="cls-25" x="632" y="1760" width="3" height="33"/><rect class="cls-25" x="640" y="1760" width="3" height="33"/><rect class="cls-25" x="647" y="1760" width="3" height="33"/><polyline class="cls-24" points="658 1743 658 1776 650 1776 650 1760"/><rect class="cls-25" x="462" y="1760" width="3" height="33"/><rect class="cls-25" x="470" y="1760" width="3" height="33"/><rect class="cls-25" x="478" y="1760" width="3" height="33"/><rect class="cls-25" x="486" y="1760" width="3" height="33"/><rect class="cls-25" x="448" y="1760" width="3" height="33"/><rect class="cls-25" x="456" y="1760" width="3" height="33"/><rect class="cls-17" x="927" y="1805" width="153" height="33"/><rect class="cls-25" x="957" y="1805" width="3" height="33"/><rect class="cls-25" x="965" y="1805" width="3" height="33"/><rect class="cls-25" x="927" y="1805" width="3" height="33"/><rect class="cls-25" x="935" y="1805" width="3" height="33"/><rect class="cls-25" x="943" y="1805" width="3" height="33"/><rect class="cls-25" x="951" y="1805" width="3" height="33"/><rect class="cls-25" x="986" y="1805" width="3" height="33"/><rect class="cls-25" x="994" y="1805" width="3" height="33"/><rect class="cls-25" x="972" y="1805" width="3" height="33"/><rect class="cls-25" x="980" y="1805" width="3" height="33"/><rect class="cls-25" x="1014" y="1805" width="3" height="33"/><rect class="cls-25" x="1022" y="1805" width="3" height="33"/><rect class="cls-25" x="1000" y="1805" width="3" height="33"/><rect class="cls-25" x="1008" y="1805" width="3" height="33"/><rect class="cls-25" x="1042" y="1805" width="3" height="33"/><rect class="cls-25" x="1050" y="1805" width="3" height="33"/><rect class="cls-25" x="1028" y="1805" width="3" height="33"/><rect class="cls-25" x="1036" y="1805" width="3" height="33"/><rect class="cls-25" x="1069" y="1805" width="3" height="33"/><rect class="cls-25" x="1056" y="1805" width="3" height="33"/><rect class="cls-25" x="1064" y="1805" width="3" height="33"/><rect class="cls-25" x="1076" y="1805" width="3" height="33"/><polyline class="cls-26" points="927 1486.33 927 1334 1015 1334 1015 1651"/><line class="cls-27" x1="839" y1="1765" x2="917.5" y2="1814.5"/><line class="cls-27" x1="839" y1="1749" x2="917.5" y2="1798.5"/><line class="cls-27" x1="839" y1="1731" x2="917.5" y2="1780.5"/><line class="cls-27" x1="840" y1="1715" x2="918.5" y2="1764.5"/><line class="cls-27" x1="840" y1="1699" x2="918.5" y2="1748.5"/><line class="cls-27" x1="840" y1="1681" x2="918.5" y2="1730.5"/><line class="cls-27" x1="854.5" y1="1667.5" x2="854.5" y2="1787.5"/><line class="cls-27" x1="865.5" y1="1658" x2="865.5" y2="1778"/><line class="cls-27" x1="876.5" y1="1723.5" x2="876.5" y2="1802.5"/><line class="cls-27" x1="839" y1="1651" x2="917.5" y2="1700.5"/><line class="cls-27" x1="848" y1="1642" x2="926.5" y2="1691.5"/><line class="cls-27" x1="876.5" y1="1647.5" x2="926.5" y2="1679.5"/><line class="cls-27" x1="896.5" y1="1642.5" x2="896.5" y2="1778.5"/><line class="cls-27" x1="908.5" y1="1540.5" x2="908.5" y2="1698"/><line class="cls-27" x1="918.5" y1="1593.5" x2="918.5" y2="1685.5"/><line class="cls-27" x1="887.5" y1="1613.5" x2="917.5" y2="1632.5"/><line class="cls-27" x1="878.5" y1="1593.5" x2="926.5" y2="1623.5"/><line class="cls-27" x1="876.5" y1="1579.5" x2="926.5" y2="1611.5"/><line class="cls-27" x1="877.5" y1="1534.5" x2="927.5" y2="1566.5"/><line class="cls-27" x1="901.5" y1="1524.5" x2="926.5" y2="1540.5"/><line class="cls-27" x1="918.5" y1="1471" x2="918.5" y2="1563"/><line class="cls-27" x1="927.5" y1="1612.5" x2="988.5" y2="1588.5"/><line class="cls-27" x1="926.5" y1="1623.5" x2="987.5" y2="1599.5"/><line class="cls-27" x1="947.5" y1="1628.5" x2="1008.5" y2="1604.5"/><line class="cls-27" x1="927.5" y1="1663.5" x2="988.5" y2="1639.5"/><line class="cls-27" x1="926.5" y1="1678.5" x2="987.5" y2="1654.5"/><line class="cls-27" x1="927.5" y1="1690.5" x2="954.5" y2="1680.5"/><line class="cls-27" x1="937.5" y1="1609" x2="937.5" y2="1701"/><line class="cls-27" x1="944.5" y1="1526.5" x2="944.5" y2="1676"/><line class="cls-27" x1="953.5" y1="1639.5" x2="953.5" y2="1689"/><line class="cls-27" x1="964.5" y1="1589" x2="964.5" y2="1681"/><line class="cls-27" x1="973.5" y1="1654.5" x2="973.5" y2="1692"/><line class="cls-27" x1="927.5" y1="1551.5" x2="954.5" y2="1541.5"/><line class="cls-27" x1="847.5" y1="1586" x2="847.5" y2="1706"/><line class="cls-27" x1="839.5" y1="1593.5" x2="862.5" y2="1608.5"/></g><g id="Layer_8" data-name="Layer 8"><rect class="cls-28" x="594.5" y="1711.5" width="5" height="49"/><rect class="cls-28" x="487" y="1736" width="5" height="24"/></g><g id="Layer_1" data-name="Layer 1"><polygon class="cls-29" points="1074.5 1317.86 1074.5 1318.89 928.75 1391.87 780 1317.39 840.97 1290.78 840.93 1290.67 926.71 1119.36 1012.48 1290.67 1012.44 1290.78 1074.5 1317.86"/><polygon class="cls-30" points="986.34 1323.9 927.48 1390.94 868.46 1323.73 927.1 1119 927.64 1119 986.34 1323.9"/><line class="cls-31" x1="991.3" y1="1387.76" x2="917.59" y2="1337.09"/><line class="cls-31" x1="1031.89" y1="1308.32" x2="991.3" y2="1387.76"/><line class="cls-31" x1="1015" y1="1279.29" x2="1031.89" y2="1308.32"/><polyline class="cls-32" points="911 1345.81 926.94 1119.42 927.48 1119.32 1012.13 1290.92"/><g class="cls-33"><rect class="cls-24" x="660" y="1717.27" width="179.12" height="58.82"/><rect class="cls-34" x="683.93" y="1717.27" width="155.2" height="58.82"/><rect class="cls-34" x="707.85" y="1717.27" width="131.27" height="58.82"/><rect class="cls-34" x="729.84" y="1717.27" width="109.29" height="58.82"/><rect class="cls-34" x="757" y="1717.27" width="82.13" height="58.82"/><rect class="cls-34" x="780.28" y="1717.27" width="58.85" height="58.82"/><rect class="cls-34" x="808.08" y="1717.27" width="29.75" height="58.82"/><g class="cls-35"><polygon class="cls-24" points="661.1 1775.86 660.61 1717.85 838.86 1717.32 839.35 1775.33 661.1 1775.86"/><polygon class="cls-34" points="661.1 1775.86 660.67 1725.6 838.93 1725.07 839.35 1775.33 661.1 1775.86"/><polygon class="cls-34" points="661.1 1775.86 660.74 1733.35 838.99 1732.82 839.35 1775.33 661.1 1775.86"/><polygon class="cls-34" points="661.1 1775.86 660.8 1740.47 839.05 1739.93 839.35 1775.33 661.1 1775.86"/><polygon class="cls-34" points="661.1 1775.86 660.87 1749.26 839.13 1748.73 839.35 1775.33 661.1 1775.86"/><polygon class="cls-34" points="661.1 1775.86 660.94 1756.8 839.19 1756.27 839.35 1775.33 661.1 1775.86"/><polygon class="cls-34" points="661.09 1775.44 661.01 1765.81 839.27 1765.28 839.35 1774.91 661.09 1775.44"/></g></g><polygon class="cls-36" points="616 1715.25 597.26 1736.6 578.46 1715.2 597.14 1650 597.31 1650 616 1715.25"/></g><g id="Layer_5" data-name="Layer 5"><rect class="cls-37" x="927" y="1704" width="153" height="101"/><polyline class="cls-38" points="1015.58 1668 1080 1668 1080 1704 927 1704"/><polygon class="cls-3" points="93.36 1896.95 30.23 1921.32 28.93 1917.95 24.69 1920 0 1920 0 1698 43 1698 43 1870.3 91.76 1851.48 93.36 1896.95"/><line class="cls-3" x1="110.76" y1="1843.48" x2="126.25" y2="1883.59"/><polygon class="cls-3" points="144 1697.88 144 1878.19 98 1895 98 1697.88 144 1697.88"/><polygon class="cls-3" points="481 1717 481 1731 448 1731 448 1770.07 416 1776 416 1731 405 1731 405 1717 381.17 1698 457.17 1698 481 1717"/></g><g id="Layer_9" data-name="Layer 9"><rect class="cls-28" x="1048" y="1756" width="5" height="49"/><polygon class="cls-36" points="1081 1740.19 1050.79 1774.6 1020.49 1740.1 1050.59 1635 1050.87 1635 1081 1740.19"/><polygon class="cls-36" points="500.7 1727.39 489.1 1740.6 477.46 1727.35 489.02 1687 489.13 1687 500.7 1727.39"/></g><g id="Layer_10" data-name="Layer 10"><ellipse class="cls-39" cx="804.5" cy="1876.5" rx="125.5" ry="13.5"/><path class="cls-3" d="M905.45,1857v1.87L874.05,1877H752.84l-32.77-18.92a4.58,4.58,0,0,0-1.06-.44V1857Z"/><rect class="cls-40" x="839" y="1866" width="62" height="1" transform="translate(1049.81 -184.94) rotate(30)"/></g></svg>